
<svg width="34px" height="33px" viewBox="0 0 34 33" version="1.1" xmlns="http://www.w3.org/2000/svg" xmlns:xlink="http://www.w3.org/1999/xlink">

    <g stroke="none" stroke-width="1" fill-rule="evenodd">
        <path d="M5.81243694,3.43567822 C10.3461407,-0.825723254 21.7389874,-1.45397137 27.2948379,3.43567822 C33.5555792,8.94546951 36.3290827,17.998138 30.9898949,25.6498685 C24.3967901,35.1008574 13.1078531,34.1384034 6.29219005,29.989018 C1.39443403,27.0080636 -4.76718772,13.3785799 5.81243694,3.43567822 Z M17.2870588,19.4921569 C17.1545098,19.6243137 16.9752941,19.6984314 16.7882353,19.6984314 C16.6011765,19.6984314 16.4219608,19.6243137 16.2894118,19.4921569 L7.09921569,10.3011765 C7.07176471,10.4145098 7.03019608,10.5231373 7.03019608,10.6454902 L7.03019608,21.9368627 C7.03019608,22.7164706 7.66156863,23.3482353 8.44156863,23.3482353 L25.3776471,23.3482353 C26.1564706,23.3482353 26.7894118,22.7168627 26.7894118,21.9368627 L26.7894118,10.6454902 C26.7894118,10.4521569 26.7494118,10.2666667 26.6784314,10.1 L17.2870588,19.4921569 Z M16.7882353,17.994902 L25.5192157,9.26352941 C25.4694118,9.25843137 25.4282353,9.23490196 25.3776471,9.23490196 L8.44156863,9.23490196 C8.32039216,9.23490196 8.20980392,9.27529412 8.09686275,9.30352941 L16.7882353,17.994902 Z"></path>
    </g>
</svg>