<svg width="34px" height="33px" viewBox="0 0 34 33" version="1.1" xmlns="http://www.w3.org/2000/svg" xmlns:xlink="http://www.w3.org/1999/xlink">
    <g id="Page-1" stroke="none" stroke-width="1" fill-rule="evenodd">
        <path d="M5.81243694,3.43567822 C10.3461407,-0.825723254 21.7389874,-1.45397137 27.2948379,3.43567822 C33.5555792,8.94546951 36.3290827,17.998138 30.9898949,25.6498685 C24.3967901,35.1008574 13.1078531,34.1384034 6.29219005,29.989018 C1.39443403,27.0080636 -4.76718772,13.3785799 5.81243694,3.43567822 Z M27.1383648,14.7983798 L27.1383648,11.9315932 L25.0943396,11.9315932 L25.0943396,14.7983798 L22.1509434,14.7983798 L22.1509434,16.8460846 L25.0943396,16.8460846 L25.0943396,19.7947795 L27.1383648,19.7947795 L27.1383648,16.8460846 L30,16.8460846 L30,14.7983798 L27.1383648,14.7983798 Z M12.2578616,14.6345635 L12.2578616,17.9108911 C12.2578616,17.9108911 15.4305157,17.9066319 16.7223396,17.9066319 C16.0227925,20.0305932 14.935044,21.1872187 12.2578616,21.1872187 C9.54854717,21.1872187 7.43396226,18.986919 7.43396226,16.2727273 C7.43396226,13.5585356 9.54854717,11.3582358 12.2578616,11.3582358 C13.6903145,11.3582358 14.6154403,11.8626265 15.4640377,12.5656445 C16.1433082,11.8851512 16.086566,11.7881719 17.8147484,10.1532025 C16.3477107,8.81547795 14.3978742,8 12.2578616,8 C7.69715094,8 4,11.7038065 4,16.2727273 C4,20.8415662 7.69715094,24.5454545 12.2578616,24.5454545 C19.0748491,24.5454545 20.7410566,18.5989199 20.1886792,14.6345635 L12.2578616,14.6345635 Z" id="gplus-header-icon"></path>
    </g>
</svg>