
<svg width="34px" height="33px" viewBox="0 0 34 33" version="1.1" xmlns="http://www.w3.org/2000/svg" xmlns:xlink="http://www.w3.org/1999/xlink">

    <g id="Page-1" stroke="none" stroke-width="1" fill-rule="evenodd">
        <path d="M5.81243694,3.43567822 C10.3461407,-0.825723254 21.7389874,-1.45397137 27.2948379,3.43567822 C33.5555792,8.94546951 36.3290827,17.998138 30.9898949,25.6498685 C24.3967901,35.1008574 13.1078531,34.1384034 6.29219005,29.989018 C1.39443403,27.0080636 -4.76718772,13.3785799 5.81243694,3.43567822 Z M27,10.9730348 C26.2651288,11.3076923 25.4739097,11.5340075 24.6439514,11.635127 C25.4915185,11.1150837 26.1418677,10.2904779 26.4482597,9.30817383 C25.6546927,9.78969544 24.7777778,10.1400024 23.8409931,10.3277958 C23.0943828,9.5104129 22.0272935,9 20.8463344,9 C18.5818513,9 16.7446734,10.8839533 16.7446734,13.2072951 C16.7446734,13.5371374 16.7798908,13.8573492 16.8503258,14.1655231 C13.440101,13.9897677 10.4172683,12.3164801 8.3922639,9.76802697 C8.0389153,10.3915974 7.83700182,11.1150837 7.83700182,11.8855182 C7.83700182,13.3445287 8.56130774,14.632599 9.66244057,15.3873841 C8.99096085,15.3669195 8.35704643,15.1755146 7.80295827,14.8625256 L7.80295827,14.9142892 C7.80295827,16.9535332 9.21752656,18.6545082 11.0957915,19.0397255 C10.7518342,19.1384375 10.3890943,19.1877934 10.0146152,19.1877934 C9.75048424,19.1877934 9.49222281,19.1625135 9.24217879,19.1131576 C9.76457123,20.7840376 11.2789223,22.0010834 13.0750132,22.0335861 C11.6710102,23.1627543 9.90074544,23.8356808 7.97904561,23.8356808 C7.64800141,23.8356808 7.32047896,23.8164199 7,23.7778982 C8.81604743,24.9696641 10.9737043,25.6666667 13.2898398,25.6666667 C20.838117,25.6666667 24.9644304,19.2564103 24.9644304,13.6960395 C24.9644304,13.5130613 24.9609086,13.3300831 24.9538651,13.1507163 C25.7556495,12.5572409 26.4517814,11.8169014 27,10.9730348 Z" id="twitter-header-icon"></path>
    </g>
</svg>