<svg width="34px" height="33px" viewBox="0 0 34 33" version="1.1" xmlns="http://www.w3.org/2000/svg" xmlns:xlink="http://www.w3.org/1999/xlink">
    <g id="Page-1" stroke="none" stroke-width="1" fill-rule="evenodd">
        <path d="M5.81243694,3.43567822 C10.3461407,-0.825723254 21.7389874,-1.45397137 27.2948379,3.43567822 C33.5555792,8.94546951 36.3290827,17.998138 30.9898949,25.6498685 C24.3967901,35.1008574 13.1078531,34.1384034 6.29219005,29.989018 C1.39443403,27.0080636 -4.76718772,13.3785799 5.81243694,3.43567822 Z M18.3606136,26 L14.1193407,26 L14.1193407,15.9987377 L12,15.9987377 L12,12.5526382 L14.1193407,12.5526382 L14.1193407,10.4837162 C14.1193407,7.67255743 15.3153978,6 18.7156728,6 L21.5457798,6 L21.5457798,9.44736178 L19.776963,9.44736178 C18.4532659,9.44736178 18.365797,9.92893209 18.365797,10.827695 L18.3599657,12.5526382 L21.5652174,12.5526382 L21.1900727,15.9987377 L18.3599657,15.9987377 L18.3599657,26 L18.3606136,26 Z" id="facebook-header-icon"></path>
    </g>
</svg>